<svg width="32" height="32" viewBox="0 0 32 32" fill="none" xmlns="http://www.w3.org/2000/svg">
<g clip-path="url(#clip0_93_1999)">
<circle cx="16" cy="16" r="16" fill="#D1D5DB"/>
<path d="M15.4991 6.98296C15.9074 8.39394 14.8279 9.9487 13.5904 10.3092C12.3529 10.6697 10.6623 9.92201 10.254 8.51103C9.84572 7.10005 10.7028 5.14506 11.9403 4.78454C13.5904 4.30382 15.0908 5.57198 15.4991 6.98296Z" fill="white"/>
<path d="M16.1796 6.98296C15.7713 8.39394 16.8508 9.9487 18.0883 10.3092C19.3258 10.6697 21.0164 9.92201 21.4247 8.51103C21.833 7.10005 20.9759 5.14506 19.7384 4.78454C18.0883 4.30382 16.5879 5.57198 16.1796 6.98296Z" fill="white"/>
<path d="M23.8409 17.2926C23.8409 20.8815 20.3219 22.2155 15.5218 22.2155C10.7216 22.2155 7.28223 20.8815 7.28223 17.2926C7.28223 13.118 10.7216 9.41602 15.5218 9.41602C20.3219 9.41602 23.8409 12.803 23.8409 17.2926Z" fill="white"/>
<path d="M13.9333 16.5835C13.9333 17.7589 13.1789 19.0483 12.1246 19.0483C11.0703 19.0483 9.36719 18.0906 9.36719 16.3348C9.36719 14.6854 11.207 14.0988 13.1082 14.4C14.2735 14.5846 13.9333 15.4081 13.9333 16.5835Z" fill="#D1D5DB"/>
<path d="M13.0523 16.4638C13.0523 16.6401 12.9993 16.783 12.7342 16.783C12.469 16.783 12.416 16.6401 12.416 16.4638C12.416 16.2875 12.5221 16.1445 12.7342 16.1445C12.9463 16.1445 13.0523 16.2875 13.0523 16.4638Z" fill="white"/>
<path d="M17.1399 16.5835C17.1399 17.7589 17.8944 19.0483 18.9487 19.0483C20.003 19.0483 21.7061 18.0906 21.7061 16.3348C21.7061 14.6854 19.8662 14.0988 17.965 14.4C16.7998 14.5846 17.1399 15.4081 17.1399 16.5835Z" fill="#D1D5DB"/>
<path d="M18.0219 16.4638C18.0219 16.6401 18.0749 16.783 18.34 16.783C18.6052 16.783 18.6582 16.6401 18.6582 16.4638C18.6582 16.2875 18.5521 16.1445 18.34 16.1445C18.1279 16.1445 18.0219 16.2875 18.0219 16.4638Z" fill="white"/>
<path fill-rule="evenodd" clip-rule="evenodd" d="M15.8056 24.001C22.2003 24.001 26.8882 22.1987 26.8882 17.3502C26.8882 11.2847 22.2003 6.70898 15.8056 6.70898C9.41097 6.70898 4.8291 11.7104 4.8291 17.3502C4.8291 22.1987 9.41097 24.001 15.8056 24.001ZM15.5541 22.1388C20.2579 22.1388 23.7062 20.819 23.7062 17.2684C23.7062 12.8266 20.2579 9.47573 15.5541 9.47573C10.8504 9.47573 7.48008 13.1383 7.48008 17.2684C7.48008 20.819 10.8504 22.1388 15.5541 22.1388Z" fill="white"/>
<mask id="mask0_93_1999" style="mask-type:alpha" maskUnits="userSpaceOnUse" x="0" y="0" width="32" height="32">
<circle cx="16" cy="16" r="16" fill="#9CA3AF"/>
</mask>
<g mask="url(#mask0_93_1999)">
<ellipse cx="15.667" cy="30" rx="9" ry="10" fill="white"/>
</g>
</g>
<defs>
<clipPath id="clip0_93_1999">
<rect width="32" height="32" fill="white"/>
</clipPath>
</defs>
</svg>
