<svg width="196" height="230" viewBox="0 0 196 230" fill="none" xmlns="http://www.w3.org/2000/svg">
<path d="M86.0457 52.3389C89.2256 60.5539 83.563 70.4032 76.3338 73.2016C69.1046 75.9999 58.5839 72.4148 55.404 64.1998C52.2241 55.9848 56.3455 43.8608 63.5748 41.0625C73.2144 37.3311 82.8658 44.1239 86.0457 52.3389Z" fill="#D1D5DB"/>
<path d="M90.1228 51.9855C88.4086 60.6261 95.6864 69.3501 103.29 70.8585C110.894 72.3669 120.638 67.0197 122.352 58.3791C124.066 49.7385 117.914 38.5079 110.31 36.9995C100.171 34.9881 91.8369 43.3449 90.1228 51.9855Z" fill="#D1D5DB"/>
<path d="M164.865 114.98C164.865 144.05 136.663 154.855 98.1935 154.855C59.7241 154.855 32.1602 144.05 32.1602 114.98C32.1602 81.1658 59.7241 51.1797 98.1935 51.1797C136.663 51.1797 164.865 78.6138 164.865 114.98Z" fill="#F3F4F6"/>
<path d="M146.763 114.646C146.763 135.956 127.004 143.877 100.052 143.877C73.1006 143.877 53.7891 135.956 53.7891 114.646C53.7891 89.8572 73.1006 67.875 100.052 67.875C127.004 67.875 146.763 87.9864 146.763 114.646Z" fill="#F9FAFB"/>
<path d="M97.5082 111.673C97.5082 118.72 93.211 126.451 87.2058 126.451C81.2007 126.451 71.5 120.709 71.5 110.182C71.5 100.293 81.9796 96.7756 92.8086 98.5815C99.4457 99.6883 97.5082 104.625 97.5082 111.673Z" fill="#D1D5DB"/>
<path d="M92.4857 110.961C92.4857 112.018 92.1837 112.875 90.6735 112.875C89.1634 112.875 88.8613 112.018 88.8613 110.961C88.8613 109.904 89.4654 109.047 90.6735 109.047C91.8817 109.047 92.4857 109.904 92.4857 110.961Z" fill="#F3F4F6"/>
<path d="M115.278 111.673C115.278 118.72 119.261 126.451 124.827 126.451C130.393 126.451 139.385 120.709 139.385 110.182C139.385 100.293 129.671 96.7756 119.634 98.5815C113.483 99.6883 115.278 104.625 115.278 111.673Z" fill="#D1D5DB"/>
<path d="M119.936 110.961C119.936 112.018 120.215 112.875 121.615 112.875C123.015 112.875 123.295 112.018 123.295 110.961C123.295 109.904 122.735 109.047 121.615 109.047C120.495 109.047 119.936 109.904 119.936 110.961Z" fill="#F3F4F6"/>
<path d="M99.7148 121.936C99.3685 121.432 98.6794 121.305 98.1757 121.651C97.672 121.998 97.5443 122.687 97.8907 123.19L99.7148 121.936ZM106.919 120.35L107.966 119.99C107.813 119.543 107.392 119.243 106.919 119.243C106.447 119.243 106.026 119.543 105.873 119.99L106.919 120.35ZM115.948 123.19C116.295 122.687 116.167 121.998 115.663 121.651C115.16 121.305 114.47 121.432 114.124 121.936L115.948 123.19ZM97.8907 123.19C98.2235 123.674 98.8325 124.329 99.6508 124.87C100.476 125.416 101.573 125.884 102.861 125.884V123.67C102.12 123.67 101.442 123.4 100.872 123.024C100.295 122.642 99.8893 122.19 99.7148 121.936L97.8907 123.19ZM102.861 125.884C104.421 125.884 105.596 124.773 106.344 123.784C107.129 122.747 107.685 121.528 107.966 120.709L105.873 119.99C105.647 120.647 105.189 121.642 104.578 122.449C103.931 123.305 103.33 123.67 102.861 123.67V125.884ZM105.873 120.709C106.154 121.528 106.71 122.747 107.495 123.784C108.243 124.773 109.418 125.884 110.978 125.884V123.67C110.509 123.67 109.908 123.305 109.261 122.449C108.65 121.642 108.192 120.647 107.966 119.99L105.873 120.709ZM110.978 125.884C112.266 125.884 113.363 125.416 114.188 124.87C115.006 124.329 115.616 123.674 115.948 123.19L114.124 121.936C113.95 122.19 113.544 122.642 112.967 123.024C112.397 123.4 111.719 123.67 110.978 123.67V125.884Z" fill="#D1D5DB"/>
<path d="M113.677 119.212C113.677 120.25 108.936 121.574 107.431 121.968C107.133 122.046 106.823 122.046 106.526 121.968C105.021 121.574 100.279 120.25 100.279 119.212C100.279 117.979 103.983 116.66 106.978 116.66C109.973 116.66 113.677 117.979 113.677 119.212Z" fill="#D1D5DB"/>
<path d="M107.96 85.3522C79.4865 87.1424 72.5417 78.0532 71.5 74.2182L87.4731 65.3109L105.53 61.9707L130.531 74.9604C129.026 78.0532 125.47 84.2514 107.96 85.3522Z" fill="#D1D5DB"/>
<path fill-rule="evenodd" clip-rule="evenodd" d="M101.648 154.947C138.126 154.947 164.869 144.141 164.869 115.072C164.869 78.7056 138.126 51.2715 101.648 51.2715C65.1704 51.2715 39.0332 81.2576 39.0332 115.072C39.0332 144.141 65.1704 154.947 101.648 154.947ZM100.215 143.782C127.047 143.782 146.718 135.869 146.718 114.582C146.718 87.9503 127.047 67.86 100.215 67.86C73.3822 67.86 54.1563 89.8191 54.1563 114.582C54.1563 135.869 73.3822 143.782 100.215 143.782Z" fill="#F3F4F6"/>
<path fill-rule="evenodd" clip-rule="evenodd" d="M24.1055 91.1732C28.1508 86.6436 35.442 87.395 38.4785 92.6544L42.9256 100.357C45.9621 105.616 42.9673 112.306 37.0219 113.545L35.0882 113.948C34.9775 113.971 34.8668 113.992 34.756 114.01C34.7143 114.125 34.6613 114.237 34.5991 114.344C32.8384 117.371 32.0002 124.344 40.6756 132.414C49.1286 140.277 56.4359 140.849 59.7996 140.01C60.0382 139.95 60.2861 139.933 60.5252 139.963L60.9655 139.09C63.7006 133.668 70.9378 132.507 75.2321 136.801L81.5212 143.09C85.8155 147.385 84.6542 154.622 79.232 157.357L78.8252 157.562C78.7138 157.739 78.5549 157.892 78.3484 158.004C67.6389 163.816 43.5643 161.007 30.3956 142.694C13.9133 119.773 15.5738 100.285 22.0726 93.3315C22.1834 93.2129 22.3095 93.1219 22.4445 93.0572C22.5549 92.9175 22.6701 92.7805 22.7899 92.6464L24.1055 91.1732Z" fill="#D1D5DB"/>
<path d="M151.65 49.4412C152.22 48.1459 152.785 47.146 153.346 46.4414C153.923 45.7307 154.521 45.2273 155.14 44.9315C155.759 44.6356 156.515 44.4196 157.407 44.2836C158.498 44.116 159.369 43.8781 160.02 43.5699C160.682 43.2665 161.161 42.7771 161.458 42.1018C161.775 41.3822 161.779 40.697 161.471 40.0461C161.167 39.3841 160.65 38.8924 159.92 38.5711C159.444 38.3617 158.952 38.2776 158.445 38.3189C157.943 38.349 157.475 38.5129 157.04 38.8106C156.61 39.0971 156.272 39.5036 156.028 40.0302L150.747 37.7075C151.46 36.1452 152.403 34.994 153.574 34.2539C154.761 33.5076 156.07 33.1452 157.501 33.1667C158.936 33.1772 160.401 33.5111 161.896 34.1685C163.512 34.8794 164.834 35.7646 165.861 36.8241C166.899 37.8885 167.55 39.0667 167.814 40.3588C168.089 41.6557 167.925 42.9905 167.321 44.3633C166.742 45.6807 165.926 46.6632 164.875 47.3107C163.824 47.9582 162.542 48.3788 161.03 48.5725C160.234 48.6714 159.559 48.8238 159.006 49.0298C158.469 49.2295 157.999 49.5316 157.596 49.9359C157.194 50.3403 156.839 50.8912 156.533 51.5886L156.328 52.0536L151.446 49.9062L151.65 49.4412ZM150.596 58.6884C150.053 58.4498 149.608 58.0954 149.26 57.6252C148.912 57.155 148.707 56.629 148.646 56.0471C148.585 55.4653 148.681 54.9 148.936 54.3514C149.158 53.8151 149.502 53.3784 149.968 53.0414C150.433 52.7044 150.957 52.5053 151.539 52.4441C152.12 52.3829 152.683 52.4716 153.225 52.7102C153.745 52.9391 154.174 53.2862 154.511 53.7515C154.859 54.2217 155.072 54.7447 155.149 55.3203C155.237 55.9008 155.17 56.4592 154.947 56.9955C154.693 57.5441 154.325 57.9901 153.843 58.3333C153.367 58.6655 152.835 58.8677 152.249 58.9399C151.667 59.0011 151.116 58.9173 150.596 58.6884Z" fill="#D1D5DB"/>
<path d="M167.617 61.1131C168.37 60.3364 169.041 59.7702 169.63 59.4144C170.233 59.0585 170.795 58.8568 171.317 58.8093C171.839 58.7619 172.438 58.808 173.114 58.9477C173.94 59.1177 174.627 59.1788 175.176 59.1309C175.731 59.0895 176.204 58.8663 176.597 58.4614C177.015 58.0299 177.2 57.5399 177.152 56.9916C177.111 56.4366 176.871 55.9468 176.433 55.5223C176.147 55.2457 175.817 55.0547 175.443 54.9495C175.075 54.8376 174.696 54.8305 174.305 54.9282C173.921 55.0193 173.571 55.2209 173.256 55.5331L170.089 52.4648C171.016 51.535 171.997 50.9606 173.033 50.7417C174.082 50.5225 175.117 50.6108 176.136 51.0065C177.162 51.3957 178.123 52.0244 179.019 52.8928C179.988 53.832 180.7 54.8176 181.154 55.8499C181.615 56.8886 181.769 57.9059 181.614 58.902C181.467 59.9045 180.994 60.8173 180.197 61.6405C179.431 62.4305 178.586 62.9177 177.66 63.1023C176.735 63.2868 175.705 63.2475 174.57 62.9843C173.973 62.8434 173.448 62.7732 172.997 62.7737C172.559 62.7741 172.143 62.8657 171.747 63.0484C171.351 63.2311 170.95 63.5316 170.545 63.9498L170.275 64.2287L167.347 61.3919L167.617 61.1131ZM164.403 67.459C164.078 67.1438 163.853 66.7715 163.729 66.342C163.604 65.9125 163.597 65.4811 163.708 65.048C163.819 64.6148 164.039 64.2354 164.367 63.9099C164.669 63.5848 165.031 63.3634 165.455 63.2456C165.878 63.1278 166.306 63.1243 166.739 63.2352C167.172 63.346 167.551 63.559 167.877 63.8742C168.189 64.1765 168.404 64.5392 168.521 64.9623C168.646 65.3918 168.659 65.823 168.561 66.256C168.47 66.6954 168.274 67.0777 167.971 67.4028C167.643 67.7282 167.261 67.95 166.825 68.068C166.395 68.1794 165.961 68.1829 165.521 68.0787C165.088 67.9679 164.715 67.7613 164.403 67.459Z" fill="#D1D5DB"/>
<path d="M42.9531 211.453C45 211.461 46.4531 213.344 46.4688 216.297C46.4531 219.258 45 221.133 42.9531 221.125C40.8906 221.133 39.4453 219.258 39.4531 216.297C39.4453 213.344 40.8906 211.461 42.9531 211.453ZM40.6094 216.297C40.6172 218.555 41.5781 220.039 42.9531 220.031C44.3438 220.039 45.2812 218.555 45.2812 216.297C45.2812 214.039 44.3438 212.555 42.9531 212.547C41.5781 212.555 40.6172 214.039 40.6094 216.297ZM48.7656 224.266V210.375H49.9844V215.922H52.3125V216.984H49.9844V224.266H48.7656ZM58.0625 212.953C58.0703 214.82 59.5469 216.523 61.625 217.203L61 218.156C59.3828 217.609 58.1016 216.469 57.4688 215C56.8594 216.578 55.5625 217.828 53.9062 218.422L53.2656 217.469C55.3516 216.734 56.8203 214.922 56.8281 212.953V212.359H53.5781V211.359H61.2656V212.359H58.0625V212.953ZM55.1875 220.531V219.516H64.5312V224.266H63.3125V220.531H55.1875ZM63.3125 218.781V210.375H64.5312V218.781H63.3125ZM83.6094 217.484V218.5H77.9531V221.344H76.7344V218.5H70.8906V217.484H83.6094ZM72.5156 223.969V219.969H73.75V222.938H82.1875V223.969H72.5156ZM72.5469 215.891V211.062H81.9531V215.891H72.5469ZM73.75 214.906H80.7344V212.031H73.75V214.906ZM89.2812 211.391C91.4609 211.398 93.0078 212.727 93.0156 214.656C93.0078 216.594 91.4609 217.914 89.2812 217.922C87.0859 217.914 85.5234 216.594 85.5312 214.656C85.5234 212.727 87.0859 211.398 89.2812 211.391ZM84.8125 220.188C87.375 220.195 90.9141 220.172 93.9844 219.719L94.0781 220.625C90.8984 221.219 87.4844 221.234 84.9844 221.234L84.8125 220.188ZM86.7344 214.656C86.7266 215.953 87.7969 216.844 89.2812 216.844C90.75 216.844 91.8203 215.953 91.8125 214.656C91.8203 213.367 90.75 212.469 89.2812 212.469C87.7969 212.469 86.7266 213.367 86.7344 214.656ZM94.9062 224.297V210.375H96.125V224.297H94.9062ZM109.312 210.375V216.031H111.562V217.062H109.312V224.266H108.094V210.375H109.312ZM98.6562 220.656C102.242 218.875 104.195 216.195 104.477 212.906H99.2969V211.875H105.719C105.711 215.805 103.867 219.391 99.3438 221.625L98.6562 220.656ZM119.172 218.531V220.266H121.703V218.531H122.844V224.078H118.016V218.531H119.172ZM116.625 214.188C116.617 212.289 118.117 211 120.234 211C122.102 211 123.516 212.055 123.781 213.656H126.688V210.375H127.922V217.734H126.688V214.672H123.789C123.547 216.312 122.117 217.391 120.234 217.391C118.117 217.391 116.617 216.094 116.625 214.188ZM117.797 214.188C117.797 215.461 118.805 216.367 120.234 216.375C121.633 216.367 122.641 215.461 122.641 214.188C122.641 212.922 121.633 212.031 120.234 212.031C118.805 212.031 117.797 212.922 117.797 214.188ZM119.172 223.109H121.703V221.203H119.172V223.109ZM123.031 223.25C124.703 222.555 125.586 221.031 125.594 219.625V218.438H126.812V219.625C126.797 221.086 127.68 222.625 129.375 223.25L128.734 224.188C127.453 223.68 126.617 222.695 126.188 221.547C125.75 222.68 124.898 223.664 123.672 224.188L123.031 223.25ZM133.969 211.453C135.859 211.461 137.227 213.086 137.414 215.688H140.531V210.375H141.75V224.297H140.531V216.703H137.43C137.297 219.43 135.906 221.133 133.969 221.125C131.914 221.133 130.477 219.258 130.484 216.297C130.477 213.344 131.914 211.461 133.969 211.453ZM131.656 216.297C131.664 218.555 132.602 220.039 133.969 220.031C135.328 220.039 136.281 218.555 136.281 216.297C136.281 214.039 135.328 212.555 133.969 212.547C132.602 212.555 131.664 214.039 131.656 216.297ZM156.781 221.453V222.484H144.062V221.453H147.219V217.711C146.031 217.094 145.312 216.094 145.312 214.828C145.312 212.68 147.422 211.266 150.391 211.25C153.359 211.266 155.469 212.68 155.469 214.828C155.469 216.07 154.773 217.055 153.625 217.672V221.453H156.781ZM146.5 214.828C146.492 216.383 148.109 217.422 150.391 217.422C152.648 217.422 154.281 216.383 154.281 214.828C154.281 213.273 152.648 212.25 150.391 212.266C148.109 212.25 146.492 213.273 146.5 214.828ZM148.422 221.453H152.391V218.148C151.789 218.305 151.117 218.391 150.391 218.391C149.68 218.391 149.016 218.312 148.422 218.156V221.453Z" fill="#9CA3AF"/>
</svg>
