<svg width="32" height="32" viewBox="0 0 32 32" fill="none" xmlns="http://www.w3.org/2000/svg">
<path d="M6.12063 18.1486C6.11369 18.1425 6.10689 18.1365 6.10023 18.1306V18.0276L5.83662 17.764C4.39591 16.3233 3.56689 14.4153 3.56689 12.4004V12.1478C3.6925 8.24296 7.0214 5.03372 10.9336 5.03372C11.551 5.03372 12.3381 5.24554 13.1069 5.65948C13.8432 6.05599 14.4988 6.60378 14.9354 7.22752C15.4087 8.27418 16.912 8.25776 17.3528 7.17827C17.721 6.52371 18.3607 5.95165 19.1053 5.53642C19.8734 5.10805 20.6564 4.90039 21.2002 4.90039C25.2275 4.90039 28.441 8.09143 28.5669 12.1473V12.4004C28.5669 14.5634 27.7285 16.4508 26.3254 17.737L26.0336 18.0045V18.0989C26.0195 18.1108 26.0051 18.1229 25.9904 18.1353C25.7824 18.3106 25.5001 18.5538 25.1638 18.8463C24.4904 19.4318 23.5883 20.2254 22.6051 21.0919C22.2901 21.3696 21.9667 21.6547 21.6397 21.9431C19.9259 23.4544 18.1136 25.0526 16.8854 26.1134C16.4208 26.4961 15.7129 26.4961 15.2483 26.1133C13.7833 24.8481 11.4559 22.8199 9.47581 21.0894C8.48445 20.223 7.5808 19.4318 6.91685 18.849C6.58479 18.5575 6.31315 18.3186 6.12063 18.1486Z" fill="#FF4747" stroke="#FF4747" stroke-width="1.8"/>
</svg>
