<svg width="152" height="208" viewBox="0 0 152 208" fill="none" xmlns="http://www.w3.org/2000/svg">
<path fill-rule="evenodd" clip-rule="evenodd" d="M50 20C36.7452 20 26 30.7452 26 44V45C26 56.9621 34.7514 66.8802 46.201 68.701L53.5 76L60.5 69H102C115.255 69 126 58.2548 126 45V44C126 30.7452 115.255 20 102 20H50Z" fill="#F3F4F6"/>
<path fill-rule="evenodd" clip-rule="evenodd" d="M80.5 74C70.2827 74 62 82.2827 62 92.5C62 102.717 70.2827 111 80.5 111H92L100 119L108.007 110.993C117.99 110.725 126 102.548 126 92.5C126 82.2827 117.717 74 107.5 74H80.5Z" fill="#F3F4F6"/>
<circle cx="64" cy="45" r="3" fill="#E5E7EB"/>
<circle cx="76" cy="45" r="3" fill="#E5E7EB"/>
<circle cx="88" cy="45" r="3" fill="#E5E7EB"/>
<circle cx="82" cy="93" r="3" fill="#E5E7EB"/>
<circle cx="94" cy="93" r="3" fill="#E5E7EB"/>
<circle cx="106" cy="93" r="3" fill="#E5E7EB"/>
<path d="M18.8906 163.453C20.9375 163.461 22.3906 165.344 22.4062 168.297C22.3906 171.258 20.9375 173.133 18.8906 173.125C16.8281 173.133 15.3828 171.258 15.3906 168.297C15.3828 165.344 16.8281 163.461 18.8906 163.453ZM16.5469 168.297C16.5547 170.555 17.5156 172.039 18.8906 172.031C20.2812 172.039 21.2188 170.555 21.2188 168.297C21.2188 166.039 20.2812 164.555 18.8906 164.547C17.5156 164.555 16.5547 166.039 16.5469 168.297ZM24.7031 176.266V162.375H25.9219V167.922H28.25V168.984H25.9219V176.266H24.7031ZM34 164.953C34.0078 166.82 35.4844 168.523 37.5625 169.203L36.9375 170.156C35.3203 169.609 34.0391 168.469 33.4062 167C32.7969 168.578 31.5 169.828 29.8438 170.422L29.2031 169.469C31.2891 168.734 32.7578 166.922 32.7656 164.953V164.359H29.5156V163.359H37.2031V164.359H34V164.953ZM31.125 172.531V171.516H40.4688V176.266H39.25V172.531H31.125ZM39.25 170.781V162.375H40.4688V170.781H39.25ZM52.7969 163.594V164.609H48.6875V168.766C50.5391 168.773 51.9062 168.695 53.4844 168.375L53.5938 169.391C51.8594 169.719 50.4375 169.781 48.375 169.781H47.4844V163.594H52.7969ZM48.6094 175.25C51.0312 174.867 53.375 173.328 53.3906 171.469V170.938H54.6094V171.469C54.6094 173.328 56.9531 174.867 59.3906 175.25L58.8594 176.203C56.7969 175.836 54.8359 174.734 54 173.164C53.1562 174.734 51.1875 175.836 49.1406 176.203L48.6094 175.25ZM54.375 170.359V162.641H55.5156V166.016H57.4688V162.375H58.6406V171.562H57.4688V167.047H55.5156V170.359H54.375ZM71.7188 162.984V163.875C71.7188 164.812 71.7188 166.016 71.4062 167.578H73.3906V168.562H60.6719V167.578H70.1719C70.4922 166.031 70.5078 164.898 70.5 163.984H62.2812V162.984H71.7188ZM62.1875 170.953V169.969H71.7656V173.469H63.4375V175.109H72.125V176.109H62.2031V172.5H70.5469V170.953H62.1875ZM85.9531 162.375V176.297H84.7188V162.375H85.9531ZM75.0156 168.297C75.0234 165.344 76.4922 163.461 78.5625 163.453C80.625 163.461 82.1172 165.344 82.1094 168.297C82.1172 171.258 80.625 173.133 78.5625 173.125C76.4922 173.133 75.0234 171.258 75.0156 168.297ZM76.2031 168.297C76.2031 170.555 77.1719 172.039 78.5625 172.031C79.9609 172.039 80.9219 170.555 80.9219 168.297C80.9219 166.039 79.9609 164.555 78.5625 164.547C77.1719 164.555 76.2031 166.039 76.2031 168.297ZM95.1094 170.531V172.266H97.6406V170.531H98.7812V176.078H93.9531V170.531H95.1094ZM92.5625 166.188C92.5547 164.289 94.0547 163 96.1719 163C98.0391 163 99.4531 164.055 99.7188 165.656H102.625V162.375H103.859V169.734H102.625V166.672H99.7266C99.4844 168.312 98.0547 169.391 96.1719 169.391C94.0547 169.391 92.5547 168.094 92.5625 166.188ZM93.7344 166.188C93.7344 167.461 94.7422 168.367 96.1719 168.375C97.5703 168.367 98.5781 167.461 98.5781 166.188C98.5781 164.922 97.5703 164.031 96.1719 164.031C94.7422 164.031 93.7344 164.922 93.7344 166.188ZM95.1094 175.109H97.6406V173.203H95.1094V175.109ZM98.9688 175.25C100.641 174.555 101.523 173.031 101.531 171.625V170.438H102.75V171.625C102.734 173.086 103.617 174.625 105.312 175.25L104.672 176.188C103.391 175.68 102.555 174.695 102.125 173.547C101.688 174.68 100.836 175.664 99.6094 176.188L98.9688 175.25ZM109.906 163.453C111.797 163.461 113.164 165.086 113.352 167.688H116.469V162.375H117.688V176.297H116.469V168.703H113.367C113.234 171.43 111.844 173.133 109.906 173.125C107.852 173.133 106.414 171.258 106.422 168.297C106.414 165.344 107.852 163.461 109.906 163.453ZM107.594 168.297C107.602 170.555 108.539 172.039 109.906 172.031C111.266 172.039 112.219 170.555 112.219 168.297C112.219 166.039 111.266 164.555 109.906 164.547C108.539 164.555 107.602 166.039 107.594 168.297ZM132.719 173.453V174.484H120V173.453H123.156V169.711C121.969 169.094 121.25 168.094 121.25 166.828C121.25 164.68 123.359 163.266 126.328 163.25C129.297 163.266 131.406 164.68 131.406 166.828C131.406 168.07 130.711 169.055 129.562 169.672V173.453H132.719ZM122.438 166.828C122.43 168.383 124.047 169.422 126.328 169.422C128.586 169.422 130.219 168.383 130.219 166.828C130.219 165.273 128.586 164.25 126.328 164.266C124.047 164.25 122.43 165.273 122.438 166.828ZM124.359 173.453H128.328V170.148C127.727 170.305 127.055 170.391 126.328 170.391C125.617 170.391 124.953 170.312 124.359 170.156V173.453ZM136.109 173.953L134.891 178.203H133.734L134.594 173.953H136.109ZM6.32031 192.641C6.32812 195 8.03906 197.398 10.0859 198.281L9.39844 199.25C7.77344 198.516 6.375 196.914 5.72656 194.992C5.07812 197.031 3.67188 198.797 2.08594 199.594L1.35156 198.625C3.34375 197.672 5.07812 195.047 5.08594 192.641V190.828H1.80469V189.812H9.63281V190.828H6.32031V192.641ZM11.5703 202.266V188.375H12.8047V202.266H11.5703ZM26.2266 189.125V190.156C26.2266 191.234 26.2266 192.5 25.8594 194.234H27.8984V195.25H15.1797V194.234H24.625C25.0156 192.484 25.0156 191.234 25.0078 190.156V190.141H16.7891V189.125H26.2266ZM16.7422 202.078V197.172H26.2891V202.078H16.7422ZM17.9609 201.078H25.0703V198.141H17.9609V201.078ZM38.9766 189.594V190.609H34.8672V194.766C36.7188 194.773 38.0859 194.695 39.6641 194.375L39.7734 195.391C38.0391 195.719 36.6172 195.781 34.5547 195.781H33.6641V189.594H38.9766ZM34.7891 201.25C37.2109 200.867 39.5547 199.328 39.5703 197.469V196.938H40.7891V197.469C40.7891 199.328 43.1328 200.867 45.5703 201.25L45.0391 202.203C42.9766 201.836 41.0156 200.734 40.1797 199.164C39.3359 200.734 37.3672 201.836 35.3203 202.203L34.7891 201.25ZM40.5547 196.359V188.641H41.6953V192.016H43.6484V188.375H44.8203V197.562H43.6484V193.047H41.6953V196.359H40.5547ZM57.8984 188.984V189.875C57.8984 190.812 57.8984 192.016 57.5859 193.578H59.5703V194.562H46.8516V193.578H56.3516C56.6719 192.031 56.6875 190.898 56.6797 189.984H48.4609V188.984H57.8984ZM48.3672 196.953V195.969H57.9453V199.469H49.6172V201.109H58.3047V202.109H48.3828V198.5H56.7266V196.953H48.3672ZM67.0078 188.625C70.0938 188.625 71.9062 189.477 71.9141 191.016C71.9062 192.594 70.0938 193.445 67.0078 193.453C63.9062 193.445 62.0859 192.594 62.0859 191.016C62.0859 189.477 63.9062 188.625 67.0078 188.625ZM60.6797 195.391V194.391H73.3359V195.391H60.6797ZM62.2109 197.531V196.594H71.7109V199.703H63.4609V201.141H72.1328V202.109H62.2422V198.797H70.5078V197.531H62.2109ZM63.3672 191.016C63.3516 191.984 64.7031 192.516 67.0078 192.516C69.3125 192.516 70.6562 191.984 70.6641 191.016C70.6562 190.102 69.3125 189.555 67.0078 189.547C64.7031 189.555 63.3516 190.102 63.3672 191.016ZM85.3359 189.188V190.188H80.3672V193.844C83.0938 193.859 84.7344 193.758 86.6328 193.375L86.7891 194.359C84.7969 194.781 83.1016 194.859 80.2422 194.844H79.1641V189.188H85.3359ZM80.5234 197.078V196.078H89.3828V199.5H81.7578V201.078H89.8984V202.078H80.5547V198.531H88.1641V197.078H80.5234ZM88.1641 195.391V188.375H89.3828V191.328H91.4766V192.344H89.3828V195.391H88.1641ZM96.0703 189.453C98.1172 189.461 99.5703 191.344 99.5859 194.297C99.5703 197.258 98.1172 199.133 96.0703 199.125C94.0078 199.133 92.5625 197.258 92.5703 194.297C92.5625 191.344 94.0078 189.461 96.0703 189.453ZM93.7266 194.297C93.7344 196.555 94.6953 198.039 96.0703 198.031C97.4609 198.039 98.3984 196.555 98.3984 194.297C98.3984 192.039 97.4609 190.555 96.0703 190.547C94.6953 190.555 93.7344 192.039 93.7266 194.297ZM101.883 202.266V188.375H103.102V193.922H105.43V194.984H103.102V202.266H101.883ZM118.898 199.469V200.484H106.18V199.469H111.898V196.469H107.68V189.359H108.914V191.875H116.133V189.359H117.336V196.469H113.102V199.469H118.898ZM108.914 195.469H116.133V192.875H108.914V195.469ZM124.133 192.328C124.133 194.539 125.211 196.922 127.055 198.016L126.352 198.969C125.008 198.156 124.047 196.672 123.562 194.977C123.055 196.828 122.023 198.422 120.633 199.266L119.852 198.344C121.773 197.219 122.945 194.758 122.945 192.375V189.688H124.133V192.328ZM125.523 194.406V193.359H127.883V188.672H129.039V201.562H127.883V194.406H125.523ZM130.727 202.266V188.375H131.914V202.266H130.727ZM146.555 199.453V200.484H133.836V199.453H136.992V195.711C135.805 195.094 135.086 194.094 135.086 192.828C135.086 190.68 137.195 189.266 140.164 189.25C143.133 189.266 145.242 190.68 145.242 192.828C145.242 194.07 144.547 195.055 143.398 195.672V199.453H146.555ZM136.273 192.828C136.266 194.383 137.883 195.422 140.164 195.422C142.422 195.422 144.055 194.383 144.055 192.828C144.055 191.273 142.422 190.25 140.164 190.266C137.883 190.25 136.266 191.273 136.273 192.828ZM138.195 199.453H142.164V196.148C141.562 196.305 140.891 196.391 140.164 196.391C139.453 196.391 138.789 196.312 138.195 196.156V199.453ZM149.914 189.688L149.805 197.812H148.492L148.383 189.688H149.914ZM148.148 200.078C148.133 199.531 148.602 199.078 149.148 199.078C149.703 199.078 150.156 199.531 150.148 200.078C150.156 200.633 149.703 201.086 149.148 201.094C148.602 201.086 148.133 200.633 148.148 200.078Z" fill="#9CA3AF"/>
</svg>
