<svg width="16" height="16" viewBox="0 0 16 16" fill="none" xmlns="http://www.w3.org/2000/svg">
<rect x="4" y="3" width="8" height="7" rx="2.5" fill="white"/>
<path fill-rule="evenodd" clip-rule="evenodd" d="M11.0912 5.78345L7.35789 9.51678L4.90923 7.06812C4.80464 6.95401 4.74815 6.80394 4.75151 6.64919C4.75488 6.49445 4.81786 6.34697 4.9273 6.23753C5.03675 6.12808 5.18422 6.0651 5.33897 6.06174C5.49371 6.05837 5.64379 6.11487 5.75789 6.21945L7.35789 7.81945L10.2426 4.93478C10.2983 4.87906 10.3644 4.83486 10.4372 4.8047C10.5101 4.77454 10.5881 4.75902 10.6669 4.75902C10.7457 4.75902 10.8237 4.77454 10.8965 4.8047C10.9693 4.83486 11.0355 4.87906 11.0912 4.93478C11.147 4.99051 11.1912 5.05666 11.2213 5.12947C11.2515 5.20228 11.267 5.28031 11.267 5.35912C11.267 5.43792 11.2515 5.51596 11.2213 5.58876C11.1912 5.66157 11.147 5.72773 11.0912 5.78345V5.78345ZM14.0979 7.04812C14.1604 6.98561 14.1955 6.90084 14.1955 6.81245C14.1955 6.72406 14.1604 6.63929 14.0979 6.57678L13.1312 5.61012C13.0898 5.56879 13.06 5.51724 13.0449 5.46069C13.0298 5.40414 13.0299 5.34461 13.0452 5.28812L13.3986 3.96812C13.4214 3.88272 13.4093 3.79176 13.365 3.71525C13.3208 3.63874 13.248 3.58294 13.1626 3.56012L11.8426 3.20678C11.7859 3.1916 11.7342 3.16172 11.6928 3.12017C11.6513 3.07861 11.6216 3.02685 11.6066 2.97012L11.2532 1.65012C11.2303 1.56467 11.1743 1.49183 11.0977 1.44759C11.0211 1.40334 10.93 1.3913 10.8446 1.41412L9.52389 1.76812C9.46744 1.78323 9.408 1.78317 9.35158 1.76796C9.29516 1.75274 9.24376 1.7229 9.20256 1.68145L8.23589 0.714783C8.17338 0.652293 8.08861 0.617188 8.00023 0.617188C7.91184 0.617188 7.82707 0.652293 7.76456 0.714783L6.79789 1.68212C6.75652 1.72351 6.705 1.7533 6.64848 1.76851C6.59197 1.78372 6.53245 1.78381 6.47589 1.76878L5.15589 1.41412C5.11356 1.40273 5.0694 1.3998 5.02594 1.40551C4.98248 1.41121 4.94057 1.42543 4.90261 1.44735C4.86465 1.46927 4.83138 1.49846 4.80472 1.53326C4.77806 1.56805 4.75852 1.60776 4.74723 1.65012L4.39323 2.97012C4.37816 3.02665 4.34848 3.07821 4.30717 3.11964C4.26586 3.16107 4.21438 3.19089 4.15789 3.20612L2.83723 3.56012C2.75196 3.58308 2.67928 3.63894 2.63516 3.71544C2.59104 3.79193 2.57907 3.88281 2.60189 3.96812L2.95523 5.28812C2.97055 5.34461 2.97066 5.40414 2.95556 5.46069C2.94046 5.51724 2.91067 5.56879 2.86923 5.61012L1.90256 6.57678C1.87154 6.60769 1.84692 6.64442 1.83013 6.68486C1.81333 6.7253 1.80469 6.76866 1.80469 6.81245C1.80469 6.85624 1.81333 6.8996 1.83013 6.94004C1.84692 6.98048 1.87154 7.01721 1.90256 7.04812L2.86923 8.01478C2.91067 8.05625 2.94045 8.10792 2.95555 8.16457C2.97064 8.22122 2.97053 8.28085 2.95523 8.33745L2.60189 9.65745C2.57907 9.74276 2.59104 9.83364 2.63516 9.91013C2.67928 9.98663 2.75196 10.0425 2.83723 10.0654L4.15789 10.4194C4.21438 10.4347 4.26586 10.4645 4.30717 10.5059C4.34848 10.5474 4.37816 10.5989 4.39323 10.6554L4.74656 11.9755C4.75825 12.0182 4.77837 12.0583 4.80573 12.0932C4.83309 12.1281 4.86714 12.1572 4.90589 12.1788L3.66523 15.5235H7.12056L7.99989 13.1515L8.88056 15.5235H12.3352L11.0946 12.1788C11.1333 12.1573 11.1673 12.1282 11.1946 12.0933C11.2218 12.0583 11.2418 12.0183 11.2532 11.9755L11.6066 10.6554C11.6216 10.5988 11.6514 10.5472 11.6928 10.5057C11.7343 10.4643 11.7859 10.4345 11.8426 10.4194L13.1626 10.0661C13.2049 10.0548 13.2446 10.0353 13.2794 10.0086C13.3142 9.98196 13.3434 9.9487 13.3653 9.91074C13.3872 9.87278 13.4015 9.83087 13.4072 9.7874C13.4129 9.74394 13.4099 9.69978 13.3986 9.65745L13.0452 8.33745C13.0299 8.28096 13.0298 8.22142 13.0449 8.16488C13.06 8.10833 13.0898 8.05678 13.1312 8.01545L14.0979 7.04878V7.04812Z" fill="#FFC117"/>
</svg>
