<svg width="40" height="41" viewBox="0 0 40 41" fill="none" xmlns="http://www.w3.org/2000/svg">
<rect y="0.0175781" width="40" height="40.1354" rx="11.1782" fill="#3692FF"/>
<path d="M19.3158 11.1922C19.8151 12.9177 18.4949 14.819 16.9816 15.2599C15.4683 15.7007 13.4008 14.7863 12.9015 13.0609C12.4022 11.3354 13.4504 8.94461 14.9637 8.50374C16.9816 7.91586 18.8165 9.4667 19.3158 11.1922Z" fill="#222327"/>
<path d="M20.1471 11.1922C19.6478 12.9177 20.968 14.819 22.4813 15.2599C23.9946 15.7007 26.0621 14.7863 26.5614 13.0609C27.0607 11.3354 26.0125 8.94461 24.4992 8.50374C22.4813 7.91586 20.6464 9.4667 20.1471 11.1922Z" fill="#222327"/>
<path d="M29.5172 23.7964C29.5172 28.1852 25.2138 29.8166 19.3437 29.8166C13.4736 29.8166 9.26758 28.1852 9.26758 23.7964C9.26758 18.6912 13.4736 14.1641 19.3437 14.1641C25.2138 14.1641 29.5172 18.306 29.5172 23.7964Z" fill="#F3D6DD"/>
<path d="M17.4003 22.9308C17.4003 24.3682 16.4777 25.9451 15.1884 25.9451C13.8991 25.9451 11.8164 24.7739 11.8164 22.6267C11.8164 20.6097 14.0664 19.8923 16.3913 20.2607C17.8163 20.4864 17.4003 21.4934 17.4003 22.9308Z" fill="#222327"/>
<path d="M16.3211 22.7849C16.3211 23.0005 16.2563 23.1753 15.932 23.1753C15.6078 23.1753 15.543 23.0005 15.543 22.7849C15.543 22.5693 15.6727 22.3945 15.932 22.3945C16.1914 22.3945 16.3211 22.5693 16.3211 22.7849Z" fill="white"/>
<path d="M21.3223 22.9308C21.3223 24.3682 22.2449 25.9451 23.5342 25.9451C24.8235 25.9451 26.9062 24.7739 26.9062 22.6267C26.9062 20.6097 24.6563 19.8923 22.3313 20.2607C20.9064 20.4864 21.3223 21.4934 21.3223 22.9308Z" fill="#222327"/>
<path d="M22.4015 22.7849C22.4015 23.0005 22.4664 23.1753 22.7906 23.1753C23.1148 23.1753 23.1797 23.0005 23.1797 22.7849C23.1797 22.5693 23.05 22.3945 22.7906 22.3945C22.5312 22.3945 22.4015 22.5693 22.4015 22.7849Z" fill="white"/>
<path d="M17.8754 25.0086C17.7969 24.894 17.6404 24.8647 17.5258 24.9433C17.4112 25.0218 17.382 25.1783 17.4605 25.2929L17.8754 25.0086ZM19.3179 24.6992L19.5559 24.6177C19.521 24.516 19.4254 24.4477 19.3179 24.4477C19.2104 24.4477 19.1148 24.516 19.08 24.6177L19.3179 24.6992ZM21.1754 25.2929C21.2539 25.1783 21.2246 25.0218 21.1101 24.9433C20.9955 24.8647 20.8389 24.894 20.7604 25.0086L21.1754 25.2929ZM17.4605 25.2929C17.53 25.3943 17.6562 25.5302 17.8254 25.6425C17.9962 25.7558 18.2244 25.8538 18.493 25.8538V25.3507C18.349 25.3507 18.2163 25.2982 18.1035 25.2233C17.9891 25.1475 17.9091 25.0577 17.8754 25.0086L17.4605 25.2929ZM18.493 25.8538C18.8235 25.8538 19.0693 25.618 19.2223 25.415C19.3838 25.2006 19.498 24.9496 19.5559 24.7807L19.08 24.6177C19.0347 24.7498 18.9427 24.9503 18.8206 25.1122C18.69 25.2855 18.5749 25.3507 18.493 25.3507V25.8538ZM19.08 24.7807C19.1379 24.9496 19.252 25.2006 19.4136 25.415C19.5666 25.618 19.8124 25.8538 20.1429 25.8538V25.3507C20.061 25.3507 19.9459 25.2855 19.8153 25.1122C19.6932 24.9503 19.6011 24.7498 19.5559 24.6177L19.08 24.7807ZM20.1429 25.8538C20.4115 25.8538 20.6397 25.7558 20.8105 25.6425C20.9797 25.5302 21.1059 25.3943 21.1754 25.2929L20.7604 25.0086C20.7268 25.0577 20.6467 25.1475 20.5324 25.2233C20.4196 25.2982 20.2868 25.3507 20.1429 25.3507V25.8538Z" fill="#222327"/>
<path d="M20.6903 24.4678C20.6903 24.677 19.7483 24.9433 19.4313 25.027C19.3635 25.0449 19.2936 25.0449 19.2259 25.027C18.9088 24.9433 17.9668 24.677 17.9668 24.4678C17.9668 24.2162 18.7197 23.9473 19.3286 23.9473C19.9374 23.9473 20.6903 24.2162 20.6903 24.4678Z" fill="#222327"/>
<path d="M19.1675 17.778C15.3833 17.778 13.9926 16.4485 13.7676 15.6709L15.5675 13.7144L19.4675 13.0371L24.8674 15.6709C24.5424 16.298 22.9559 17.778 19.1675 17.778Z" fill="#222327"/>
<path fill-rule="evenodd" clip-rule="evenodd" d="M19.6908 31.9999C27.5108 31.9999 33.2437 29.7959 33.2437 23.8667C33.2437 16.4492 27.5108 10.8535 19.6908 10.8535C11.8708 10.8535 6.26758 16.9697 6.26758 23.8667C6.26758 29.7959 11.8708 31.9999 19.6908 31.9999ZM19.3833 29.7228C25.1355 29.7228 29.3525 28.1088 29.3525 23.7668C29.3525 18.3349 25.1355 14.2372 19.3833 14.2372C13.6311 14.2372 9.50951 18.7161 9.50951 23.7668C9.50951 28.1088 13.6311 29.7228 19.3833 29.7228Z" fill="white"/>
</svg>
